<svg width="134" height="248" viewBox="0 0 134 248" fill="none" xmlns="http://www.w3.org/2000/svg">
<rect width="134" height="248" fill="#1E1E1E"/>
<path id="Polygon 4" d="M99.301 244.804L35.6461 245.241C23.4409 245.325 17.3993 230.456 26.2041 222.003L32.3052 216.146C35.5462 213.034 37.3783 208.736 37.3783 204.243V187.024C37.3783 181.564 40.667 176.641 45.711 174.552L62.0921 167.765C65.4007 166.394 69.1183 166.394 72.4268 167.765L89.7743 174.952C94.3697 176.856 97.5457 181.133 98.0401 186.082L100.072 206.421C100.385 209.556 101.588 212.535 103.541 215.007L109.803 222.938C116.767 231.756 110.538 244.727 99.301 244.804Z" fill="#F9D88C" stroke="black" stroke-width="3"/>
<line id="Line 1" x1="72.5" y1="196" x2="72.5" y2="245" stroke="black" stroke-width="3"/>
<line id="Line 2" x1="62.5" y1="196" x2="62.5" y2="245" stroke="black" stroke-width="3"/>
<line id="Line 3" x1="37.4257" y1="187.534" x2="54.4257" y2="239.534" stroke="black" stroke-width="3"/>
<line id="Line 4" x1="98.4443" y1="188.896" x2="80.4161" y2="240.495" stroke="black" stroke-width="3"/>
<path id="Vector 7" d="M37.9505 243.912C38.2943 227.636 49.5482 234.355 55.1321 239.75" stroke="black" stroke-width="3"/>
<path id="Vector 9" d="M96.0198 244.479C94.4592 230.54 84.6897 235.973 80 240.432" stroke="black" stroke-width="3"/>
<path id="Polygon 8" d="M95.7904 113.149L86.8845 109.498C85.513 108.936 84.6443 107.571 84.716 106.09L86.6234 66.7284C86.6393 66.3998 86.7014 66.0752 86.808 65.764L101.065 24.1241C101.168 23.8237 101.311 23.5387 101.491 23.2769L109.385 11.7776C109.705 11.3118 110.133 10.9303 110.632 10.6658L120.701 5.33117C122.364 4.44985 124.427 5.04216 125.369 6.67179L131.585 17.4205C131.914 17.9889 132.076 18.6382 132.053 19.2944L131.707 29.2302C131.701 29.3971 131.684 29.5634 131.654 29.7278L123.538 74.8706C123.456 75.3251 123.285 75.7588 123.035 76.147L100.06 111.806C99.1464 113.224 97.3512 113.789 95.7904 113.149Z" fill="#F9D88C" stroke="black" stroke-width="3"/>
<path id="Polygon 10" d="M108.388 38.2411C110.927 36.6066 114.325 37.5792 115.615 40.3099L116.669 42.5414C117.025 43.2957 117.187 44.1272 117.14 44.96L116.855 49.9888L112.514 74.2074C112.414 74.7621 112.222 75.296 111.945 75.7865L102.242 92.9431C100.984 95.1688 98.2326 96.0629 95.906 95.0025V95.0025C94.0371 94.1507 92.892 92.2295 93.0319 90.1804L94.3577 70.7614C94.3847 70.3661 94.4586 69.9753 94.5778 69.5974L101.56 47.4694C101.678 47.0956 101.84 46.737 102.041 46.401L105.426 40.7613C105.821 40.1034 106.362 39.5452 107.007 39.1299L108.388 38.2411Z" fill="black"/>
<path id="Polygon 9" d="M37.9036 110.149L46.8095 106.498C48.181 105.936 49.0496 104.571 48.9779 103.09L47.0706 63.7284C47.0547 63.3998 46.9925 63.0752 46.886 62.764L32.6292 21.1241C32.5263 20.8237 32.3831 20.5387 32.2033 20.2769L24.3087 8.77758C23.9889 8.31178 23.5611 7.93032 23.0618 7.6658L12.9929 2.33117C11.3294 1.44985 9.26685 2.04216 8.32446 3.67179L2.10867 14.4205C1.77998 14.9889 1.6178 15.6382 1.64065 16.2944L1.98664 26.2302C1.99245 26.3971 2.0102 26.5634 2.03975 26.7278L10.156 71.8706C10.2377 72.3251 10.4085 72.7588 10.6586 73.147L33.6339 108.806C34.5476 110.224 36.3427 110.789 37.9036 110.149Z" fill="#F9D88C" fill-opacity="0.976471" stroke="black" stroke-width="3"/>
<circle id="Ellipse 9" cx="67" cy="136" r="53.5" fill="#F9D88C" stroke="black" stroke-width="3"/>
<circle id="Ellipse 2" cx="42.5" cy="131.5" r="15.5" fill="#010101"/>
<circle id="Ellipse 3" cx="37.5" cy="126.5" r="4.5" fill="#D9D9D9"/>
<circle id="Ellipse 7" cx="92.5" cy="131.5" r="15.5" fill="#010101"/>
<circle id="Ellipse 8" cx="88.5" cy="126.5" r="4.5" fill="#D9D9D9"/>
<path id="Polygon 1" d="M63.4514 161.042C65.2134 163.504 68.8561 163.555 70.6866 161.143L70.7639 161.042L73.6356 156.741C74.7955 155.004 73.9042 152.641 71.886 152.103V152.103C71.6298 152.035 71.3657 152 71.1005 152H67H62.8923C62.6319 152 62.3726 152.034 62.121 152.101V152.101C60.1162 152.636 59.2501 154.998 60.4345 156.702L63.4514 161.042V161.042Z" fill="black"/>
<path id="Vector 4" d="M25 119.281C28.5 109.781 40 106.281 50 108.781" stroke="black" stroke-width="3"/>
<path id="Vector 5" d="M114 119.281C110.5 109.781 99 106.281 89 108.781" stroke="black" stroke-width="3"/>
<line id="Line 5" x1="84.6214" y1="155.549" x2="100.103" y2="151.51" stroke="black" stroke-width="3"/>
<line id="Line 6" x1="84.8379" y1="160.509" x2="100.744" y2="158.78" stroke="black" stroke-width="3"/>
<path id="Line 7" d="M85.0976 166.503L101 168.5" stroke="black" stroke-width="3"/>
<line id="Line 8" y1="-1.5" x2="16" y2="-1.5" transform="matrix(-0.967617 -0.252422 -0.252422 0.967617 50 156)" stroke="black" stroke-width="3"/>
<line id="Line 9" y1="-1.5" x2="16" y2="-1.5" transform="matrix(-0.994144 -0.108059 -0.108059 0.994144 50 161)" stroke="black" stroke-width="3"/>
<line id="Line 10" y1="-1.5" x2="16" y2="-1.5" transform="matrix(-0.99788 0.0650791 0.0650791 0.99788 50 167)" stroke="black" stroke-width="3"/>
<path id="Vector 10" d="M80.0833 157.831C78.0395 164.723 64.5395 167.723 67.0395 158.723" stroke="black" stroke-width="3"/>
<path id="Vector 11" d="M53.208 157.99C55.8245 167.147 69.208 165.99 67.1664 158.988" stroke="black" stroke-width="3"/>
<rect id="Rectangle 1" x="67" y="165" width="5" height="9" fill="#D9D9D9" stroke="black" stroke-width="2"/>
<rect id="Rectangle 2" x="62" y="165" width="5" height="9" fill="#D9D9D9" stroke="black" stroke-width="2"/>
<path id="Ellipse 15" d="M131.5 220.4C131.5 226.948 129.439 233.541 125.952 238.463C122.467 243.38 117.668 246.5 112.164 246.5C106.607 246.5 101.986 243.681 98.7023 239.157C95.4036 234.611 93.5 228.385 93.5 221.815C93.5 215.267 95.3863 210.763 98.5064 207.879C101.647 204.976 106.27 203.5 112.164 203.5C118.139 203.5 122.952 204.659 126.249 207.25C129.476 209.785 131.5 213.894 131.5 220.4Z" fill="#F9D88C" stroke="black" stroke-width="3"/>
<ellipse id="Ellipse 10" cx="102.5" cy="220" rx="4.5" ry="6" fill="black"/>
<ellipse id="Ellipse 14" cx="111.5" cy="234.5" rx="9.5" ry="8.5" fill="black"/>
<ellipse id="Ellipse 12" cx="121.5" cy="220" rx="4.5" ry="6" fill="#050505"/>
<ellipse id="Ellipse 11" cx="112" cy="212.5" rx="5" ry="5.5" fill="#050505"/>
<path id="Ellipse 16" d="M40.5 219.4C40.5 225.948 38.4393 232.541 34.9518 237.463C31.467 242.38 26.6675 245.5 21.1639 245.5C15.6074 245.5 10.9858 242.681 7.70227 238.157C4.40361 233.611 2.5 227.385 2.5 220.815C2.5 214.267 4.38631 209.763 7.50639 206.879C10.6474 203.976 15.2698 202.5 21.1639 202.5C27.1388 202.5 31.9517 203.659 35.2489 206.25C38.4759 208.785 40.5 212.894 40.5 219.4Z" fill="#F9D88C" stroke="black" stroke-width="3"/>
<ellipse id="Ellipse 17" cx="11.5" cy="219" rx="4.5" ry="6" fill="black"/>
<ellipse id="Ellipse 18" cx="20.5" cy="233.5" rx="9.5" ry="8.5" fill="black"/>
<ellipse id="Ellipse 19" cx="30.5" cy="219" rx="4.5" ry="6" fill="#050505"/>
<ellipse id="Ellipse 20" cx="21" cy="211.5" rx="5" ry="5.5" fill="#050505"/>
<path id="Polygon 11" d="M25.8927 38.2411C23.3532 36.6066 19.9555 37.5792 18.6656 40.3099L17.6115 42.5414C17.2552 43.2957 17.0933 44.1272 17.1406 44.96L17.4257 49.9888L21.7667 74.2074C21.8662 74.7621 22.0586 75.296 22.336 75.7865L31.1789 91.4237C32.7148 94.1396 36.4357 94.6041 38.5921 92.3491V92.3491C39.4201 91.4833 39.8822 90.3314 39.8822 89.1333L39.8822 70.9364C39.8822 70.426 39.8041 69.9186 39.6505 69.4318L32.7204 47.4694C32.6025 47.0956 32.441 46.737 32.2394 46.401L28.8547 40.7613C28.4599 40.1034 27.9189 39.5452 27.2737 39.1299L25.8927 38.2411Z" fill="black"/>
</svg>
