<svg width="136" height="244" viewBox="0 0 136 244" fill="none" xmlns="http://www.w3.org/2000/svg">
<rect width="136" height="244" fill="#1E1E1E"/>
<path id="Polygon 5" d="M39.8912 212.966L36.8424 215.769C35.0471 217.421 32.1558 216.775 31.2333 214.517L27.0396 204.254C26.5359 203.021 25.6659 201.973 24.5471 201.251L6.67761 189.718C5.87325 189.199 5.31663 188.373 5.13738 187.433L1.9283 170.597L1.56924 163.804C1.41262 160.841 4.78202 159.04 7.15893 160.815L10.03 162.96C10.6837 163.448 11.1462 164.149 11.3377 164.942L15.1419 180.702C15.547 182.381 16.603 183.829 18.0771 184.727L33.7977 194.311C34.4229 194.692 34.9129 195.259 35.1986 195.934L40.7448 209.024C41.3219 210.386 40.9802 211.964 39.8912 212.966Z" fill="#909090" stroke="black" stroke-width="3"/>
<path id="Polygon 4" d="M107.654 241.561L35.6256 242.376C24.0334 242.508 17.6783 228.929 25.2051 220.112L35.3986 208.171C37.7999 205.358 39.1865 201.82 39.3359 198.125L41.8435 136.094C42.0159 131.828 44.1959 127.895 47.722 125.489L64.5387 114.011C69.1288 110.878 75.1697 110.878 79.7598 114.011L96.8287 125.661C100.226 127.98 102.381 131.722 102.682 135.824L107.346 199.468C107.552 202.275 108.472 204.983 110.02 207.334L118.778 220.639C124.648 229.558 118.331 241.44 107.654 241.561Z" fill="#909090" stroke="black" stroke-width="3"/>
<line id="Line 1" x1="77.6274" y1="159.25" x2="77.6274" y2="241.25" stroke="black" stroke-width="3"/>
<line id="Line 2" x1="67.6274" y1="159.25" x2="67.6274" y2="241.25" stroke="black" stroke-width="3"/>
<line id="Line 3" x1="41.6167" y1="146.071" x2="51.6167" y2="229.071" stroke="black" stroke-width="3"/>
<line id="Line 4" x1="103.614" y1="147.449" x2="92.6141" y2="229.449" stroke="black" stroke-width="3"/>
<path id="Vector 7" d="M30.4794 241.081C39.265 220.929 48.6095 225.682 52.1836 230.578" stroke="black" stroke-width="3"/>
<path id="Vector 8" d="M113.832 241.081C105.046 220.929 95.7015 225.682 92.1274 230.578" stroke="black" stroke-width="3"/>
<path id="Vector 9" d="M113.832 241.081C105.046 220.929 95.7015 225.682 92.1274 230.578" stroke="black" stroke-width="3"/>
<path id="Polygon 7" d="M7.7182 6.2835L17.3022 52.2827C17.8475 54.8999 21.0071 55.9642 23.0248 54.2102L57.6585 24.1036C59.6762 22.3497 59.062 19.0727 56.5461 18.1684L12.3284 2.27588C9.75346 1.35039 7.16009 3.60478 7.7182 6.2835Z" fill="#909090" stroke="black" stroke-width="3"/>
<path id="Polygon 8" d="M132.899 5.85734L124.119 52.0168C123.62 54.6431 120.479 55.7624 118.431 54.0439L83.2771 24.5463C81.2291 22.8279 81.786 19.5406 84.2857 18.5926L128.219 1.93079C130.778 0.960513 133.41 3.1693 132.899 5.85734Z" fill="#909090" stroke="black" stroke-width="3"/>
<circle id="Ellipse 9" cx="71" cy="69" r="53.5" fill="#909090" stroke="black" stroke-width="3"/>
<circle id="Ellipse 2" cx="46.5" cy="64.5" r="15.5" fill="#010101"/>
<circle id="Ellipse 3" cx="41.5" cy="59.5" r="4.5" fill="#D9D9D9"/>
<circle id="Ellipse 7" cx="96.5" cy="64.5" r="15.5" fill="#010101"/>
<circle id="Ellipse 8" cx="92.5" cy="59.5" r="4.5" fill="#D9D9D9"/>
<path id="Polygon 1" d="M67.4514 92.0417C69.2134 94.5036 72.8561 94.5549 74.6866 92.1434L74.7639 92.0417L77.6356 87.741C78.7955 86.0038 77.9042 83.6411 75.886 83.1029V83.1029C75.6298 83.0346 75.3657 83 75.1005 83H71.3849H66.8923C66.6319 83 66.3726 83.034 66.121 83.1011V83.1011C64.1162 83.6357 63.2501 85.9983 64.4345 87.7019L67.4514 92.0417V92.0417Z" fill="black"/>
<path id="Vector 4" d="M29 52.2813C32.5 42.7811 44 39.2813 54 41.7813" stroke="black" stroke-width="3"/>
<path id="Vector 5" d="M118 52.2813C114.5 42.7811 103 39.2813 93 41.7813" stroke="black" stroke-width="3"/>
<line id="Line 5" x1="88.6214" y1="88.5486" x2="134.621" y2="76.5486" stroke="black" stroke-width="3"/>
<line id="Line 6" x1="88.8379" y1="93.5088" x2="134.838" y2="88.5088" stroke="black" stroke-width="3"/>
<line id="Line 7" x1="89.0976" y1="99.5032" x2="135.098" y2="102.503" stroke="black" stroke-width="3"/>
<line id="Line 8" y1="-1.5" x2="47.5395" y2="-1.5" transform="matrix(-0.967617 -0.252422 -0.252422 0.967617 54 89)" stroke="black" stroke-width="3"/>
<line id="Line 9" y1="-1.5" x2="46.2709" y2="-1.5" transform="matrix(-0.994144 -0.108059 -0.108059 0.994144 54 94)" stroke="black" stroke-width="3"/>
<line id="Line 10" y1="-1.5" x2="46.0977" y2="-1.5" transform="matrix(-0.99788 0.0650791 0.0650791 0.99788 54 100)" stroke="black" stroke-width="3"/>
<path id="Vector 10" d="M84.713 92.0571C82.0964 101.214 72.4369 99.9888 71.0416 92.894" stroke="black" stroke-width="3"/>
<path id="Vector 11" d="M57.287 92.3239C59.9036 101.481 69.5631 100.256 70.9584 93.1608" stroke="black" stroke-width="3"/>
</svg>
