<svg width="213" height="243" viewBox="0 0 213 243" fill="none" xmlns="http://www.w3.org/2000/svg">
<rect width="213" height="243" fill="#1E1E1E"/>
<path id="Polygon 5" d="M76.8408 204.82L66.0296 212.016C65.8012 212.168 65.4931 212.108 65.339 211.881L51.4158 191.39C51.3839 191.343 51.3602 191.291 51.3458 191.236L43.8108 162.509C43.7578 162.307 43.7974 162.202 43.8308 162.143C43.8763 162.063 43.9697 161.973 44.1106 161.917C44.2516 161.861 44.3812 161.863 44.4693 161.891C44.5341 161.911 44.6345 161.96 44.7341 162.144L57.105 184.975C57.2799 185.297 57.5044 185.591 57.7705 185.844L76.9083 204.042C77.1408 204.263 77.1078 204.643 76.8408 204.82Z" fill="#C49A6C" stroke="black" stroke-width="3"/>
<path id="Polygon 4" d="M142.527 240.311L70.4981 241.126C58.9059 241.258 52.5508 227.679 60.0777 218.862L70.2712 206.921C72.6724 204.108 74.059 200.57 74.2084 196.875L76.7161 134.844C76.8885 130.578 79.0684 126.645 82.5945 124.239L99.4113 112.761C104.001 109.628 110.042 109.628 114.632 112.761L131.701 124.411C135.099 126.73 137.254 130.472 137.555 134.574L142.219 198.218C142.425 201.025 143.345 203.733 144.892 206.084L153.65 219.389C159.521 228.308 153.204 240.19 142.527 240.311Z" fill="#C49A6C" stroke="black" stroke-width="3"/>
<path id="Ellipse 6" d="M168.5 43.9035C168.5 61.5024 161.325 82.7408 150.04 99.5786C138.716 116.474 123.566 128.5 107.829 128.5C92.0732 128.5 77.2603 117.029 66.2878 100.738C55.3464 84.4941 48.5 63.8384 48.5 46.2288C48.5 28.7397 55.2408 17.6846 65.8503 10.9171C76.5771 4.07488 91.4418 1.5 107.829 1.5C124.261 1.5 139.476 3.50475 150.545 9.79397C156.05 12.9222 160.517 17.1035 163.617 22.6325C166.719 28.1662 168.5 35.1344 168.5 43.9035Z" fill="#C49A6C" stroke="black" stroke-width="3"/>
<circle id="Ellipse 2" cx="81.5" cy="51.5" r="15.5" fill="#010101"/>
<circle id="Ellipse 3" cx="76.5" cy="48.5" r="4.5" fill="#D9D9D9"/>
<circle id="Ellipse 7" cx="133.5" cy="51.5" r="15.5" fill="#010101"/>
<circle id="Ellipse 8" cx="128.5" cy="48.5" r="4.5" fill="#D9D9D9"/>
<path id="Polygon 1" d="M103.131 93.6975C105.488 96.8727 110.218 96.9399 112.663 93.833L114.5 91.5L119.487 84.2982C121.583 81.2717 120.022 77.0834 116.457 76.1666V76.1666C116.026 76.056 115.584 76 115.14 76H108.493H100.465C100.029 76 99.595 76.0549 99.1727 76.1635V76.1635C95.6329 77.0738 94.1179 81.2602 96.2553 84.2251L101.5 91.5L103.131 93.6975Z" fill="black"/>
<path id="Vector 1" d="M108 96C108 103.2 114.333 105.333 117.5 105.5H126C132.5 106 139 97 136 92.5" stroke="black" stroke-width="3"/>
<path id="Vector 6" d="M107.753 95.5C107.753 102.7 101.42 104.833 98.2532 105H89.7532C83.2532 105.5 76.7532 96.5 79.7532 92" stroke="black" stroke-width="3"/>
<path id="Vector 4" d="M64 39.2813C67.5 29.7811 79 26.2813 89 28.7813" stroke="black" stroke-width="3"/>
<path id="Vector 5" d="M153 39.2813C149.5 29.7811 138 26.2813 128 28.7813" stroke="black" stroke-width="3"/>
<path id="Polygon 2" d="M203.327 58.8174L179.737 70.3231C170.735 74.7137 160.254 68.1173 160.319 58.1017L160.571 19.2396C160.62 11.774 166.718 5.76529 174.184 5.8277L175.203 5.83621C179.218 5.86978 183.01 7.68905 185.549 10.8L207.868 38.1479C213.371 44.8907 211.149 55.0021 203.327 58.8174Z" fill="#C49A6C" stroke="black" stroke-width="3"/>
<path id="Polygon 3" d="M9.6731 58.8174L33.2633 70.3231C42.2654 74.7137 52.746 68.1173 52.681 58.1017L52.4286 19.2396C52.3802 11.774 46.2815 5.76529 38.8161 5.8277L37.7973 5.83621C33.782 5.86978 29.99 7.68905 27.4511 10.8L5.1321 38.1479C-0.370816 44.8907 1.85061 55.0021 9.6731 58.8174Z" fill="#C49A6C" stroke="black" stroke-width="3"/>
<line id="Line 1" x1="112.5" y1="158" x2="112.5" y2="240" stroke="black" stroke-width="3"/>
<line id="Line 2" x1="102.5" y1="158" x2="102.5" y2="240" stroke="black" stroke-width="3"/>
<line id="Line 3" x1="76.4892" y1="144.821" x2="86.4892" y2="227.821" stroke="black" stroke-width="3"/>
<line id="Line 4" x1="138.487" y1="146.199" x2="127.487" y2="228.199" stroke="black" stroke-width="3"/>
<path id="Vector 7" d="M65.352 239.831C74.1375 219.679 83.4821 224.432 87.0561 229.328" stroke="black" stroke-width="3"/>
<path id="Vector 8" d="M148.704 239.831C139.919 219.679 130.574 224.432 127 229.328" stroke="black" stroke-width="3"/>
<path id="Vector 9" d="M148.704 239.831C139.919 219.679 130.574 224.432 127 229.328" stroke="black" stroke-width="3"/>
</svg>
