<svg width="170" height="206" viewBox="0 0 170 206" fill="none" xmlns="http://www.w3.org/2000/svg">
<rect width="170" height="206" fill="#1E1E1E"/>
<path id="Polygon 6" d="M154.413 200.861L146.162 179.147L125.134 175.071L154.413 200.861Z" fill="#8CF99C" stroke="black" stroke-width="3"/>
<path id="Ellipse 10" d="M168 132C168 165.77 141.92 193.091 109.725 193.495C105.606 188.284 101.211 183.291 96.6016 178.055C84.9274 164.794 71.8835 149.977 58.5008 126.11C58.5697 109.145 63.1429 95.2984 71.5961 85.6933C80.0909 76.0408 92.6534 70.5 109 70.5C141.528 70.5 168 97.9767 168 132Z" fill="#D9D9D9" stroke="black" stroke-width="3"/>
<path id="Ellipse 13" d="M168 132C168 165.77 141.92 193.091 109.725 193.495C105.606 188.284 101.211 183.291 96.6016 178.055C84.9274 164.794 71.8835 149.977 58.5008 126.11C58.5697 109.145 63.1429 95.2984 71.5961 85.6933C80.0909 76.0408 92.6534 70.5 109 70.5C141.528 70.5 168 97.9767 168 132Z" fill="#22792F" stroke="black" stroke-width="3"/>
<circle id="Ellipse 9" cx="55" cy="55" r="53.5" fill="#8CF99C" stroke="black" stroke-width="3"/>
<ellipse id="Ellipse 2" cx="19.5" cy="50" rx="15.5" ry="19" fill="#010101"/>
<circle id="Ellipse 3" cx="14.5" cy="41.5" r="4.5" fill="#D9D9D9"/>
<ellipse id="Ellipse 7" cx="90.5" cy="50" rx="15.5" ry="19" fill="#010101"/>
<circle id="Ellipse 8" cx="86.5" cy="41.5" r="4.5" fill="#D9D9D9"/>
<path id="Vector 10" d="M73.4272 80.2073C57.6947 103.373 42.2677 90.1293 36.5207 80.6118" stroke="black" stroke-width="3"/>
<path id="Ellipse 11" d="M75.5 142C75.5 153.127 68.4674 161.5 60.5 161.5C52.5326 161.5 45.5 153.127 45.5 142C45.5 130.873 52.5326 122.5 60.5 122.5C68.4674 122.5 75.5 130.873 75.5 142Z" fill="#8CF99C" stroke="black" stroke-width="3"/>
<path id="Ellipse 12" d="M98.0757 203.717C90.7487 203.589 84.2166 201.42 79.5782 198.094C74.9337 194.764 72.3045 190.379 72.385 185.766C72.4656 181.153 75.2462 176.862 80.0041 173.696C84.7558 170.534 91.3596 168.594 98.6865 168.722C106.013 168.85 112.546 171.019 117.184 174.345C121.828 177.675 124.458 182.06 124.377 186.673C124.297 191.287 121.516 195.577 116.758 198.743C112.006 201.905 105.403 203.845 98.0757 203.717Z" fill="#8CF99C" stroke="black" stroke-width="3"/>
<line id="Line 1" x1="54.5" y1="149" x2="54.5" y2="159" stroke="black" stroke-width="3"/>
<line id="Line 3" x1="60.5" y1="151" x2="60.5" y2="161" stroke="black" stroke-width="3"/>
<line id="Line 2" x1="66.5" y1="149" x2="66.5" y2="159" stroke="black" stroke-width="3"/>
<line id="Line 4" x1="74" y1="180.5" x2="83" y2="180.5" stroke="black" stroke-width="3"/>
<line id="Line 6" x1="74" y1="185.5" x2="89" y2="185.5" stroke="black" stroke-width="3"/>
<line id="Line 5" x1="74" y1="191.5" x2="83" y2="191.5" stroke="black" stroke-width="3"/>
<line id="Line 7" x1="70.4796" y1="106.247" x2="67.4796" y2="124.247" stroke="black" stroke-width="3"/>
<line id="Line 9" x1="75.2053" y1="141.107" x2="95.2053" y2="168.107" stroke="black" stroke-width="3"/>
<line id="Line 8" x1="138.553" y1="185.432" x2="122.553" y2="180.432" stroke="black" stroke-width="3"/>
<path id="Polygon 1" d="M130.376 85.0167L133.297 96.2364C133.535 97.1497 133.394 98.1204 132.906 98.9283L129.091 105.244C128.061 106.947 125.82 107.451 124.16 106.351L113.555 99.3173L105.36 93.1697C103.562 91.8209 103.483 89.1512 105.199 87.6988L114.189 80.0868C115.091 79.3231 116.317 79.0662 117.45 79.4038L127.988 82.5444C129.162 82.8942 130.067 83.8317 130.376 85.0167Z" fill="#8CF99C" stroke="black" stroke-width="3"/>
<path id="Polygon 3" d="M124.131 114.712L128.994 134.63C129.226 135.58 129.05 136.585 128.507 137.4L122.434 146.521C121.251 148.298 118.766 148.611 117.179 147.183L100.554 132.225L86.4454 118.275C84.8625 116.71 85.1235 114.084 86.9834 112.861L101.326 103.431C102.39 102.732 103.75 102.665 104.877 103.258L122.359 112.444C123.248 112.911 123.893 113.737 124.131 114.712Z" fill="#8CF99C" stroke="black" stroke-width="3"/>
<path id="Polygon 4" d="M148.229 154.345L149.573 165.291C149.69 166.24 149.413 167.195 148.808 167.934L144.993 172.598C143.708 174.167 141.364 174.32 139.886 172.931L131.131 164.7L124.39 157.624C122.844 156.002 123.2 153.366 125.12 152.211L133.691 147.054C134.726 146.432 136.009 146.387 137.085 146.935L146.344 151.653C147.381 152.181 148.087 153.19 148.229 154.345Z" fill="#8CF99C" stroke="black" stroke-width="3"/>
<path id="Polygon 2" d="M157.795 118.838L159.237 130.218C159.359 131.185 159.073 132.159 158.447 132.906L150.566 142.31C149.114 144.043 146.424 143.965 145.075 142.151L138.539 133.365C138.44 133.231 138.35 133.09 138.27 132.943L132.538 122.361C131.661 120.742 132.189 118.72 133.745 117.736L141.837 112.619C142.739 112.048 143.852 111.921 144.86 112.272L155.475 115.973C156.729 116.41 157.628 117.52 157.795 118.838Z" fill="#8CF99C" stroke="black" stroke-width="3"/>
<path id="Polygon 5" d="M145.562 101.289L152.982 102.333C155.89 102.742 157.979 99.6035 156.478 97.0789L153.946 92.8168C153.738 92.4669 153.471 92.1559 153.156 91.8978L148.222 87.8542C145.93 85.9749 142.485 87.6189 142.504 90.5833L142.55 97.8449C142.561 99.581 143.843 101.047 145.562 101.289Z" fill="#8CF99C" stroke="black" stroke-width="3"/>
<ellipse id="Ellipse 14" cx="47.5" cy="65.5" rx="1.5" ry="2.5" fill="black"/>
<ellipse id="Ellipse 15" cx="61.5" cy="65.5" rx="1.5" ry="2.5" fill="black"/>
</svg>
